<?xml version="1.0" encoding="UTF-8" standalone="no"?>
<!-- Created with Inkscape (http://www.inkscape.org/) -->

<svg
   width="45.52916mm"
   height="20.199974mm"
   viewBox="0 0 45.52916 20.199974"
   version="1.1"
   id="svg1"
   xml:space="preserve"
   xmlns="http://www.w3.org/2000/svg"
   xmlns:svg="http://www.w3.org/2000/svg"><defs
     id="defs1" /><g
     id="layer4"
     transform="translate(-92,-90.241669)"><path
       id="rect26-2"
       style="fill:#ffffff;fill-opacity:1;stroke-width:0.241338"
       d="m 101,96.308327 h 19.5 c 0.554,0 1,0.446 1,1 0,0.554 -0.446,1 -1,1 H 101 c -0.554,0 -1,-0.446 -1,-1 0,-0.554 0.446,-1 1,-1 z" /><path
       id="rect26-2-1"
       style="fill:#ffffff;fill-opacity:1;stroke-width:0.260241"
       d="m 109,90.241669 h 23 c 0.554,0 1,0.446 1,1 0,0.554 -0.446,1 -1,1 h -23 c -0.554,0 -1,-0.446 -1,-1 0,-0.554 0.446,-1 1,-1 z" /><path
       id="rect26-2-1-6"
       style="fill:#ffffff;fill-opacity:1;stroke-width:0.104096"
       d="m 134.52916,90.241669 h 2 c 0.554,0 1,0.446 1,1 0,0.554 -0.446,1 -1,1 h -2 c -0.554,0 -1,-0.446 -1,-1 0,-0.554 0.446,-1 1,-1 z" /><path
       id="rect26-2-1-6-1"
       style="fill:#ffffff;fill-opacity:1;stroke-width:0.14254"
       d="m 123.02917,96.308327 h 5.5 c 0.554,0 1,0.446 1,1 0,0.554 -0.446,1 -1,1 h -5.5 c -0.554,0 -1,-0.446 -1,-1 0,-0.554 0.446,-1 1,-1 z" /><path
       id="rect26-2-1-6-9"
       style="fill:#ffffff;fill-opacity:1;stroke-width:0.172625"
       d="m 111.52917,102.37498 h 9 c 0.554,0 1,0.446 1,1 0,0.554 -0.446,1 -1,1 h -9 c -0.554,0 -1,-0.446 -1,-1 0,-0.554 0.446,-1 1,-1 z" /><path
       id="rect26-2-1-6-2"
       style="fill:#ffffff;fill-opacity:1;stroke-width:0.198192"
       d="m 100.02917,108.44164 h 12.5 c 0.554,0 1,0.446 1,1 0,0.554 -0.446,1 -1,1 h -12.5 c -0.554003,0 -1.000003,-0.446 -1.000003,-1 0,-0.554 0.446,-1 1.000003,-1 z" /><path
       id="rect26-3"
       style="fill:#ffffff;fill-opacity:1;stroke-width:0.220822"
       d="m 93,102.37498 h 16 c 0.554,0 1,0.446 1,1 0,0.554 -0.446,1 -1,1 H 93 c -0.554,0 -1,-0.446 -1,-1 0,-0.554 0.446,-1 1,-1 z" /><path
       id="rect26-3-0"
       style="fill:#ffffff;fill-opacity:1;stroke-width:0.132698"
       d="m 93,108.44164 h 4.5 c 0.554,0 1,0.446 1,1 0,0.554 -0.446,1 -1,1 H 93 c -0.554,0 -1,-0.446 -1,-1 0,-0.554 0.446,-1 1,-1 z" /><path
       id="rect26-9"
       style="fill:#ffffff;fill-opacity:1;stroke-width:0.147827"
       transform="rotate(-90)"
       d="m -97.308327,108 h 6.066656 c 0.554,0 1,0.446 1,1 0,0.554 -0.446,1 -1,1 h -6.066656 c -0.554,0 -1,-0.446 -1,-1 0,-0.554 0.446,-1 1,-1 z" /><path
       id="rect26-9-1"
       style="fill:#ffffff;fill-opacity:1;stroke-width:0.147827"
       transform="rotate(-90)"
       d="m -109.44164,92 h 6.06665 c 0.554,0 1,0.446 1,1 0,0.554 -0.446,1 -1,1 h -6.06665 c -0.554,0 -1,-0.446 -1,-1 0,-0.554 0.446,-1 1,-1 z" /><path
       id="rect26-9-2"
       style="fill:#ffffff;fill-opacity:1;stroke-width:0.147827"
       transform="rotate(-90)"
       d="m -103.37498,100 h 6.066659 c 0.554,0 1,0.446 1,1 0,0.554 -0.446,1 -1,1 h -6.066659 c -0.554,0 -1,-0.446 -1,-1 0,-0.554 0.446,-1 1,-1 z" /></g><style
     id="style1" /></svg>
