<?xml version="1.0" encoding="UTF-8" standalone="no"?>
<!-- Created with Inkscape (http://www.inkscape.org/) -->

<svg
   width="45.52916mm"
   height="20.199974mm"
   viewBox="0 0 45.52916 20.199974"
   version="1.1"
   id="svg1"
   xml:space="preserve"
   xmlns="http://www.w3.org/2000/svg"
   xmlns:svg="http://www.w3.org/2000/svg"><defs
     id="defs1" /><g
     id="layer4"
     transform="translate(-92,-90.241669)"><rect
       style="fill:#000000;stroke-width:0.241338"
       id="rect26-2"
       width="21.5"
       height="2"
       x="100"
       y="96.308327"
       ry="1" /><rect
       style="fill:#000000;stroke-width:0.260241"
       id="rect26-2-1"
       width="25"
       height="2"
       x="108"
       y="90.241669"
       ry="1" /><rect
       style="fill:#000000;stroke-width:0.104096"
       id="rect26-2-1-6"
       width="4"
       height="2"
       x="133.52916"
       y="90.241669"
       ry="1" /><rect
       style="fill:#000000;stroke-width:0.14254"
       id="rect26-2-1-6-1"
       width="7.5"
       height="2"
       x="122.02917"
       y="96.308327"
       ry="1" /><rect
       style="fill:#000000;stroke-width:0.172625"
       id="rect26-2-1-6-9"
       width="11"
       height="2"
       x="110.52917"
       y="102.37498"
       ry="1" /><rect
       style="fill:#000000;stroke-width:0.198192"
       id="rect26-2-1-6-2"
       width="14.5"
       height="2"
       x="99.029167"
       y="108.44164"
       ry="1" /><rect
       style="fill:#000000;stroke-width:0.220822"
       id="rect26-3"
       width="18.000004"
       height="2"
       x="92"
       y="102.37498"
       ry="1" /><rect
       style="fill:#000000;stroke-width:0.132698"
       id="rect26-3-0"
       width="6.5"
       height="2"
       x="92"
       y="108.44164"
       ry="1" /><rect
       style="fill:#000000;stroke-width:0.147827"
       id="rect26-9"
       width="8.0666561"
       height="2"
       x="-98.308327"
       y="108"
       ry="1"
       transform="rotate(-90)" /><rect
       style="fill:#000000;stroke-width:0.147827"
       id="rect26-9-2"
       width="8.0666561"
       height="2"
       x="-104.37498"
       y="100"
       ry="1"
       transform="rotate(-90)" /><rect
       style="fill:#000000;stroke-width:0.147827"
       id="rect26-9-1"
       width="8.0666561"
       height="2"
       x="-110.44164"
       y="92"
       ry="1"
       transform="rotate(-90)" /></g><style
     id="style1" /></svg>
